<?xml version="1.0" standalone="no"?>
<!DOCTYPE svg PUBLIC "-//W3C//DTD SVG 20010904//EN"
 "http://www.w3.org/TR/2001/REC-SVG-20010904/DTD/svg10.dtd">
<svg version="1.0" xmlns="http://www.w3.org/2000/svg"
 width="512.000000pt" height="512.000000pt" viewBox="0 0 512.000000 512.000000"
 preserveAspectRatio="xMidYMid meet">

<g transform="translate(0.000000,512.000000) scale(0.100000,-0.100000)"
fill="#000000" stroke="none">
<path d="M480 4147 c-19 -6 -58 -34 -85 -62 -71 -70 -91 -146 -63 -237 14 -48
76 -121 118 -138 l30 -12 0 -658 0 -658 -30 -12 c-42 -17 -104 -90 -118 -138
-17 -56 -17 -729 0 -786 16 -55 99 -138 154 -154 83 -24 161 -9 221 43 l37 32
47 -66 c104 -148 256 -256 440 -313 l74 -23 1205 -3 c858 -2 1228 0 1284 8 88
13 198 49 266 88 112 64 233 178 286 268 l26 44 39 -33 c63 -54 140 -69 223
-45 55 16 138 99 154 154 17 57 17 730 0 786 -14 48 -76 121 -118 138 l-30 12
0 658 0 658 30 12 c68 28 130 129 130 210 0 125 -114 240 -238 240 -126 0
-242 -115 -242 -240 0 -81 62 -182 130 -210 l30 -12 0 -657 0 -656 -42 -23
c-23 -12 -42 -21 -44 -20 -1 2 -19 46 -39 98 -186 472 -518 833 -966 1050
-455 219 -963 249 -1459 84 -41 -14 -142 -59 -225 -99 -431 -214 -755 -569
-935 -1025 -23 -58 -43 -106 -44 -108 -2 -1 -21 8 -44 20 l-42 23 0 656 0 657
30 12 c42 17 104 90 118 138 26 86 8 162 -55 232 -65 72 -158 97 -253 67z
m135 -172 c50 -49 15 -135 -55 -135 -41 0 -80 39 -80 80 0 41 39 80 80 80 19
0 40 -9 55 -25z m4000 0 c16 -15 25 -36 25 -55 0 -19 -9 -40 -25 -55 -15 -16
-36 -25 -55 -25 -19 0 -40 9 -55 25 -16 15 -25 36 -25 55 0 19 9 40 25 55 15
16 36 25 55 25 19 0 40 -9 55 -25z m-1870 -465 c607 -70 1119 -428 1393 -975
156 -312 224 -741 153 -965 -50 -157 -174 -304 -322 -378 -148 -75 -83 -72
-1409 -72 -1309 0 -1259 -2 -1395 64 -229 111 -364 331 -365 591 0 319 105
664 288 945 239 369 632 647 1057 749 193 47 415 62 600 41z m-2130 -1295 l25
-24 0 -351 0 -351 -25 -24 c-32 -33 -78 -33 -110 0 l-25 24 0 351 0 351 25 24
c15 16 36 25 55 25 19 0 40 -9 55 -25z m4000 0 l25 -24 0 -351 0 -351 -25 -24
c-15 -16 -36 -25 -55 -25 -19 0 -40 9 -55 25 l-25 24 0 351 0 351 25 24 c15
16 36 25 55 25 19 0 40 -9 55 -25z"/>
<path d="M1725 2708 c-154 -29 -314 -154 -386 -304 -151 -311 4 -665 341 -780
52 -18 100 -19 880 -19 917 0 856 -4 994 68 67 36 164 128 203 194 133 227
100 503 -82 686 -76 77 -190 138 -289 156 -75 14 -1589 13 -1661 -1z m1717
-185 c93 -44 151 -100 196 -191 35 -72 37 -81 37 -172 0 -91 -2 -100 -37 -172
-45 -91 -103 -147 -196 -191 l-67 -32 -815 0 -815 0 -67 32 c-93 44 -151 100
-196 191 -35 72 -37 81 -37 171 0 87 3 102 32 163 17 37 50 87 72 111 44 48
135 101 197 116 23 5 375 9 834 8 l795 -2 67 -32z"/>
<path d="M1920 2387 c-49 -16 -133 -102 -148 -153 -28 -94 -8 -169 63 -239
102 -103 243 -101 338 5 93 103 90 228 -8 325 -70 71 -152 91 -245 62z m135
-172 c50 -49 15 -135 -55 -135 -19 0 -40 9 -55 25 -16 15 -25 36 -25 55 0 19
9 40 25 55 15 16 36 25 55 25 19 0 40 -9 55 -25z"/>
<path d="M3040 2387 c-49 -16 -133 -102 -148 -153 -28 -94 -8 -169 63 -239
102 -103 243 -101 338 5 93 103 90 228 -8 325 -70 71 -152 91 -245 62z m135
-172 c50 -49 15 -135 -55 -135 -41 0 -80 39 -80 80 0 41 39 80 80 80 19 0 40
-9 55 -25z"/>
</g>
</svg>
